<mxfile host="Electron" modified="2024-03-23T16:24:33.003Z" agent="Mozilla/5.0 (Windows NT 10.0; Win64; x64) AppleWebKit/537.36 (KHTML, like Gecko) draw.io/23.1.5 Chrome/120.0.6099.109 Electron/28.1.0 Safari/537.36" etag="G6VRqnbecrH6MUOfh25i" version="23.1.5" type="device">
  <diagram name="Página-1" id="GmumN8dEbo3VKDdGYs1d">
    <mxGraphModel dx="1420" dy="830" grid="1" gridSize="10" guides="1" tooltips="1" connect="1" arrows="1" fold="1" page="1" pageScale="1" pageWidth="827" pageHeight="1169" background="#CCE5FF" math="0" shadow="0">
      <root>
        <mxCell id="0" />
        <mxCell id="1" parent="0" />
        <mxCell id="hNDQZppV81-L3c_C8bF0-1" value="&lt;b style=&quot;font-size: 15px;&quot;&gt;&lt;font style=&quot;font-size: 15px;&quot; color=&quot;#000000&quot;&gt;10 Hacer un programa para ingresar por teclado una cantidad de horas y mostrar&lt;br&gt;&lt;br&gt;por pantalla a cuantos días y horas equivalen.&lt;br&gt;&lt;br&gt;Ejemplo A: si se ingresan 26 horas el programa mostrará por pantalla que&lt;br&gt;&lt;br&gt;equivalen a 1 día y 2 horas.&lt;br&gt;&lt;br&gt;Ejemplo B: si se ingresan 72 horas el programa mostrará por pantalla que&lt;br&gt;&lt;br&gt;equivalen a 3 días y 0 horas.&lt;br&gt;&lt;br&gt;Ejemplo C: si se ingresan 20 horas el programa mostrará por pantalla que&lt;br&gt;&lt;br&gt;equivalen a 0 días y 20 horas.&lt;/font&gt;&lt;/b&gt;" style="text;whiteSpace=wrap;html=1;" vertex="1" parent="1">
          <mxGeometry x="120" y="10" width="650" height="290" as="geometry" />
        </mxCell>
        <mxCell id="hNDQZppV81-L3c_C8bF0-18" value="" style="group;aspect=fixed;" vertex="1" connectable="0" parent="1">
          <mxGeometry x="275" y="330" width="210" height="380" as="geometry" />
        </mxCell>
        <mxCell id="hNDQZppV81-L3c_C8bF0-2" value="" style="strokeWidth=2;html=1;shape=mxgraph.flowchart.start_2;whiteSpace=wrap;rounded=0;labelBackgroundColor=none;strokeColor=#000000;align=center;verticalAlign=middle;fontFamily=Helvetica;fontSize=12;fontColor=default;fillColor=#d5e8d4;" vertex="1" parent="hNDQZppV81-L3c_C8bF0-18">
          <mxGeometry x="85" width="40" height="40" as="geometry" />
        </mxCell>
        <mxCell id="hNDQZppV81-L3c_C8bF0-4" value="" style="shape=trapezoid;perimeter=trapezoidPerimeter;whiteSpace=wrap;html=1;fixedSize=1;rounded=0;labelBackgroundColor=none;strokeColor=#121211;strokeWidth=2;align=center;verticalAlign=middle;fontFamily=Helvetica;fontSize=12;fontColor=default;fillColor=#d5e8d4;direction=west;container=1;" vertex="1" parent="hNDQZppV81-L3c_C8bF0-18">
          <mxGeometry x="35" y="70" width="140" height="50" as="geometry">
            <mxRectangle x="-1020" y="-650" width="50" height="40" as="alternateBounds" />
          </mxGeometry>
        </mxCell>
        <mxCell id="hNDQZppV81-L3c_C8bF0-11" value="horas" style="text;strokeColor=none;align=center;fillColor=none;html=1;verticalAlign=middle;whiteSpace=wrap;rounded=0;fontStyle=1;fontColor=#000000;fontSize=16;" vertex="1" parent="hNDQZppV81-L3c_C8bF0-4">
          <mxGeometry x="15" width="110" height="50" as="geometry" />
        </mxCell>
        <mxCell id="hNDQZppV81-L3c_C8bF0-5" value="" style="shape=trapezoid;perimeter=trapezoidPerimeter;whiteSpace=wrap;html=1;fixedSize=1;rounded=0;labelBackgroundColor=none;strokeColor=#0F140C;strokeWidth=2;align=center;verticalAlign=middle;fontFamily=Helvetica;fontSize=12;fontColor=default;fillColor=#d5e8d4;" vertex="1" parent="hNDQZppV81-L3c_C8bF0-18">
          <mxGeometry x="10" y="270" width="190" height="40" as="geometry" />
        </mxCell>
        <mxCell id="hNDQZppV81-L3c_C8bF0-6" value="&lt;b&gt;&lt;font color=&quot;#000000&quot; style=&quot;font-size: 16px;&quot;&gt;I&lt;/font&gt;&lt;/b&gt;" style="text;strokeColor=none;align=center;fillColor=none;html=1;verticalAlign=middle;whiteSpace=wrap;rounded=0;" vertex="1" parent="hNDQZppV81-L3c_C8bF0-18">
          <mxGeometry x="75" y="5" width="60" height="30" as="geometry" />
        </mxCell>
        <mxCell id="hNDQZppV81-L3c_C8bF0-9" value="" style="group;aspect=fixed;" vertex="1" connectable="0" parent="hNDQZppV81-L3c_C8bF0-18">
          <mxGeometry x="75" y="340" width="60" height="40" as="geometry" />
        </mxCell>
        <mxCell id="hNDQZppV81-L3c_C8bF0-3" value="" style="strokeWidth=2;html=1;shape=mxgraph.flowchart.start_2;whiteSpace=wrap;rounded=0;labelBackgroundColor=none;strokeColor=#000000;align=center;verticalAlign=middle;fontFamily=Helvetica;fontSize=12;fontColor=default;fillColor=#d5e8d4;" vertex="1" parent="hNDQZppV81-L3c_C8bF0-9">
          <mxGeometry x="10" width="40" height="40" as="geometry" />
        </mxCell>
        <mxCell id="hNDQZppV81-L3c_C8bF0-7" value="&lt;b&gt;&lt;font color=&quot;#000000&quot; style=&quot;font-size: 16px;&quot;&gt;F&lt;/font&gt;&lt;/b&gt;" style="text;strokeColor=none;align=center;fillColor=none;html=1;verticalAlign=middle;whiteSpace=wrap;rounded=0;" vertex="1" parent="hNDQZppV81-L3c_C8bF0-9">
          <mxGeometry y="5" width="60" height="30" as="geometry" />
        </mxCell>
        <mxCell id="hNDQZppV81-L3c_C8bF0-8" style="edgeStyle=orthogonalEdgeStyle;rounded=0;sketch=1;hachureGap=4;jiggle=2;curveFitting=1;orthogonalLoop=1;jettySize=auto;html=1;exitX=0.5;exitY=1;exitDx=0;exitDy=0;" edge="1" parent="hNDQZppV81-L3c_C8bF0-9" source="hNDQZppV81-L3c_C8bF0-7" target="hNDQZppV81-L3c_C8bF0-7">
          <mxGeometry relative="1" as="geometry" />
        </mxCell>
        <mxCell id="hNDQZppV81-L3c_C8bF0-15" value="" style="line;strokeWidth=2;direction=south;html=1;hachureGap=4;strokeColor=#000000;" vertex="1" parent="hNDQZppV81-L3c_C8bF0-9">
          <mxGeometry x="25" y="-30" width="10" height="30" as="geometry" />
        </mxCell>
        <mxCell id="hNDQZppV81-L3c_C8bF0-10" value="" style="rounded=0;whiteSpace=wrap;html=1;labelBackgroundColor=none;strokeColor=#0f100e;strokeWidth=2;align=center;verticalAlign=middle;fontFamily=Helvetica;fontSize=12;fontColor=default;fillColor=#d5e8d4;" vertex="1" parent="hNDQZppV81-L3c_C8bF0-18">
          <mxGeometry y="150" width="210" height="90" as="geometry" />
        </mxCell>
        <mxCell id="hNDQZppV81-L3c_C8bF0-12" value="dias = horas / 24&lt;br&gt;resto_horas = horas % 24" style="text;strokeColor=none;align=left;fillColor=none;html=1;verticalAlign=middle;whiteSpace=wrap;rounded=0;fontStyle=1;fontSize=15;fontColor=#000000;" vertex="1" parent="hNDQZppV81-L3c_C8bF0-18">
          <mxGeometry x="10" y="160" width="190" height="70" as="geometry" />
        </mxCell>
        <mxCell id="hNDQZppV81-L3c_C8bF0-13" value="&lt;b&gt;&lt;font color=&quot;#000000&quot; style=&quot;font-size: 15px;&quot;&gt;dias, resto_horas&lt;/font&gt;&lt;/b&gt;" style="text;strokeColor=none;align=center;fillColor=none;html=1;verticalAlign=middle;whiteSpace=wrap;rounded=0;" vertex="1" parent="hNDQZppV81-L3c_C8bF0-18">
          <mxGeometry x="10" y="260" width="200" height="60" as="geometry" />
        </mxCell>
        <mxCell id="hNDQZppV81-L3c_C8bF0-14" value="" style="line;strokeWidth=2;direction=south;html=1;hachureGap=4;strokeColor=#000000;" vertex="1" parent="hNDQZppV81-L3c_C8bF0-18">
          <mxGeometry x="100" y="40" width="10" height="30" as="geometry" />
        </mxCell>
        <mxCell id="hNDQZppV81-L3c_C8bF0-16" value="" style="line;strokeWidth=2;direction=south;html=1;hachureGap=4;strokeColor=#000000;" vertex="1" parent="hNDQZppV81-L3c_C8bF0-18">
          <mxGeometry x="100" y="120" width="10" height="30" as="geometry" />
        </mxCell>
        <mxCell id="hNDQZppV81-L3c_C8bF0-17" value="" style="line;strokeWidth=2;direction=south;html=1;hachureGap=4;strokeColor=#000000;" vertex="1" parent="hNDQZppV81-L3c_C8bF0-18">
          <mxGeometry x="100" y="240" width="10" height="30" as="geometry" />
        </mxCell>
      </root>
    </mxGraphModel>
  </diagram>
</mxfile>
